<!-- Generated by IcoMoon.io -->
<svg version="1.1" xmlns="http://www.w3.org/2000/svg" width="1024" height="1024" viewBox="0 0 1024 1024">
<title></title>
<g id="icomoon-ignore">
</g>
<path fill="#000" d="M331.219 487.719c56.539 0 102.531-45.992 102.531-102.523 0-56.539-45.992-102.531-102.531-102.531-56.531 0-102.523 45.992-102.523 102.531 0 56.531 45.992 102.523 102.523 102.523zM331.219 342.664c23.453 0 42.531 19.078 42.531 42.531 0 23.445-19.078 42.523-42.531 42.523-23.445 0-42.523-19.078-42.523-42.523 0-23.453 19.078-42.531 42.523-42.531z"></path>
<path fill="#000" d="M692.781 282.664c-56.539 0-102.531 45.992-102.531 102.531 0 56.531 45.992 102.523 102.531 102.523 56.531 0 102.523-45.992 102.523-102.523 0-56.539-45.992-102.531-102.523-102.531zM692.781 427.719c-23.453 0-42.531-19.078-42.531-42.523 0-23.453 19.078-42.531 42.531-42.531 23.445 0 42.523 19.078 42.523 42.531 0 23.445-19.078 42.523-42.523 42.523z"></path>
<path fill="#000" d="M257.016 622h509.969v60h-509.969z"></path>
<path fill="#000" d="M874.039 149.961c-96.703-96.703-225.281-149.961-362.039-149.961s-265.336 53.258-362.039 149.961c-96.703 96.703-149.961 225.281-149.961 362.039s53.258 265.336 149.961 362.039c96.703 96.703 225.281 149.961 362.039 149.961s265.336-53.258 362.039-149.961c96.703-96.703 149.961-225.281 149.961-362.039s-53.258-265.336-149.961-362.039zM512 964c-249.234 0-452-202.766-452-452s202.766-452 452-452 452 202.766 452 452-202.766 452-452 452z"></path>
</svg>
