<!-- Generated by IcoMoon.io -->
<svg version="1.1" xmlns="http://www.w3.org/2000/svg" width="1024" height="1024" viewBox="0 0 1024 1024">
<title></title>
<g id="icomoon-ignore">
</g>
<path fill="#000" d="M512 769.617c-103.523 0-197.398-65.148-233.594-162.109l-56.211 20.984c21.82 58.453 60.391 108.453 111.539 144.594 52.336 36.984 113.977 56.531 178.266 56.531s125.938-19.547 178.273-56.531c51.148-36.141 89.711-86.141 111.531-144.594l-56.211-20.984c-36.195 96.961-130.070 162.109-233.594 162.109z"></path>
<path fill="#000" d="M874.039 149.961c-96.703-96.703-225.281-149.961-362.039-149.961s-265.336 53.258-362.039 149.961c-96.703 96.703-149.961 225.281-149.961 362.039s53.258 265.336 149.961 362.039c96.703 96.703 225.281 149.961 362.039 149.961s265.336-53.258 362.039-149.961c96.703-96.703 149.961-225.281 149.961-362.039s-53.258-265.336-149.961-362.039zM512 964c-249.234 0-452-202.766-452-452s202.766-452 452-452 452 202.766 452 452-202.766 452-452 452z"></path>
<path fill="#000" d="M331.219 503.719c56.539 0 102.531-45.992 102.531-102.523 0-56.539-45.992-102.531-102.531-102.531-56.531 0-102.523 45.992-102.523 102.531 0 56.531 45.992 102.523 102.523 102.523zM331.219 358.664c23.453 0 42.531 19.078 42.531 42.531 0 23.445-19.078 42.523-42.531 42.523-23.445 0-42.523-19.078-42.523-42.523 0-23.453 19.078-42.531 42.523-42.531z"></path>
<path fill="#000" d="M692.781 503.719c56.531 0 102.523-45.992 102.523-102.523 0-56.539-45.992-102.531-102.523-102.531-56.539 0-102.531 45.992-102.531 102.531 0 56.531 45.992 102.523 102.531 102.523zM692.781 358.664c23.445 0 42.523 19.078 42.523 42.531 0 23.445-19.078 42.523-42.523 42.523-23.453 0-42.531-19.078-42.531-42.523 0-23.453 19.078-42.531 42.531-42.531z"></path>
</svg>
