<!-- Generated by IcoMoon.io -->
<svg version="1.1" xmlns="http://www.w3.org/2000/svg" width="1024" height="1024" viewBox="0 0 1024 1024">
<title></title>
<g id="icomoon-ignore">
</g>
<path fill="#000" d="M331.219 503.719c56.539 0 102.531-45.992 102.531-102.523 0-56.539-45.992-102.531-102.531-102.531-56.531 0-102.523 45.992-102.523 102.531 0 56.531 45.992 102.523 102.523 102.523zM331.219 358.664c23.453 0 42.531 19.078 42.531 42.531 0 23.445-19.078 42.523-42.531 42.523-23.445 0-42.523-19.078-42.523-42.523 0-23.453 19.078-42.531 42.523-42.531z"></path>
<path fill="#000" d="M692.781 298.664c-56.539 0-102.531 45.992-102.531 102.531 0 56.531 45.992 102.523 102.531 102.523 56.531 0 102.523-45.992 102.523-102.523 0-56.539-45.992-102.531-102.523-102.531zM692.781 443.719c-23.453 0-42.531-19.078-42.531-42.523 0-23.453 19.078-42.531 42.531-42.531 23.445 0 42.523 19.078 42.523 42.531 0 23.445-19.078 42.523-42.523 42.523z"></path>
<path fill="#000" d="M682.023 626.469c-49.914-35.273-108.711-53.914-170.023-53.914s-120.109 18.641-170.023 53.914c-48.781 34.469-85.563 82.156-106.367 137.906l56.203 20.984c34.117-91.398 122.602-152.805 220.188-152.805 97.578 0 186.063 61.406 220.18 152.805l56.211-20.984c-20.805-55.75-57.586-103.438-106.367-137.906z"></path>
<path fill="#000" d="M874.039 149.961c-96.703-96.703-225.281-149.961-362.039-149.961s-265.336 53.258-362.039 149.961c-96.703 96.703-149.961 225.281-149.961 362.039s53.258 265.336 149.961 362.039c96.703 96.703 225.281 149.961 362.039 149.961s265.336-53.258 362.039-149.961c96.703-96.703 149.961-225.281 149.961-362.039s-53.258-265.336-149.961-362.039zM512 964c-249.234 0-452-202.766-452-452s202.766-452 452-452 452 202.766 452 452-202.766 452-452 452z"></path>
</svg>
